<?xml version="1.0" encoding="utf-8"?>
<!-- Generator: Adobe Illustrator 19.1.0, SVG Export Plug-In . SVG Version: 6.00 Build 0)  -->
<svg>
	<g id="bus-icon">
		<path d="M106,173.9c0,1.3,0.6,2.5,1.5,3.2v2.6c0,0.9,0.6,1.5,1.5,1.5h1.5c0.9,0,1.5-0.6,1.5-1.5v-1.5h11.7v1.5
			c0,0.9,0.6,1.5,1.5,1.5h1.5c0.9,0,1.5-0.6,1.5-1.5v-2.6c0.9-0.7,1.5-1.9,1.5-3.2v-14.6c0-5.1-5.3-5.8-11.7-5.8s-11.7,0.7-11.7,5.8
			V173.9z M111.1,175.4c-1.2,0-2.2-1-2.2-2.2s1-2.2,2.2-2.2s2.2,1,2.2,2.2S112.3,175.4,111.1,175.4z M124.2,175.4
			c-1.2,0-2.2-1-2.2-2.2s1-2.2,2.2-2.2s2.2,1,2.2,2.2S125.4,175.4,124.2,175.4z M126.4,166.6h-17.5v-7.3h17.5V166.6z"/>
	</g>
</svg>
